
<svg  xmlns="http://www.w3.org/2000/svg" xmlns:xlink="http://www.w3.org/1999/xlink"   fill="purple" viewBox="0 0 32 29.6" width="100">
  
  
  <svg  width="100" height="200" xml:lang="fr" version="1.1" xmlns="http://www.w3.org/2000/svg" xmlns:xlink="http://www.w3.org/1999/xlink" viewBox="0 0 32 29.6"   fill="purple" stroke="black">
   <defs>
            <linearGradient id="gradient" x1="0%" y1="0%" x2="100%" y2="0%" >
            <stop offset="0%" style="stop-color: #686de0;stop-opacity:1"></stop>
            <stop offset="100%" style="stop-color: #e056fd;stop-opacity:1"></stop>
        </linearGradient>
     </defs>
    <path d="M23.6,0c-3.4,0-6.3,2.7-7.6,5.6C14.7,2.7,11.8,0,8.4,0C3.8,0,0,3.8,0,8.4c0,9.4,9.5,11.9,16,21.2
  c6.1-9.3,16-12.1,16-21.2C32,3.8,28.2,0,23.6,0z" />
</svg>
<svg xmlns = "http://www.w3.org/2000/svg"      xmlns: xlink = "http://www.w3.org/1999/xlink" class="heart-background" type="checkbox" viewBox="0 0 32 29.6" width="100" title="heart">
    <path d="M23.6,0c-3.4,0-6.3,2.7-7.6,5.6C14.7,2.7,11.8,0,8.4,0C3.8,0,0,3.8,0,8.4c0,9.4,9.5,11.9,16,21.2
  c6.1-9.3,16-12.1,16-21.2C32,3.8,28.2,0,23.6,0z" />
</svg>

