<?xml version="1.0" encoding="UTF-8"?>
<svg enable-background="new 0 0 477.534 477.534" version="1.1" viewBox="0 0 477.53 477.53" xml:space="preserve" xmlns="http://www.w3.org/2000/svg">
<path d="m438.48 58.61c-24.7-26.549-59.311-41.655-95.573-41.711-36.291 0.042-70.938 15.14-95.676 41.694l-8.431 8.909-8.431-8.909c-49.087-52.831-131.71-55.865-184.54-6.778-2.341 2.176-4.602 4.436-6.778 6.778-52.072 56.166-52.072 142.97 0 199.13l187.36 197.58c6.482 6.843 17.284 7.136 24.127 0.654 0.224-0.212 0.442-0.43 0.654-0.654l187.29-197.58c52.068-56.16 52.068-142.96-1e-3 -199.12zm-24.695 175.62h-0.017l-174.97 184.54-174.98-184.54c-39.78-42.916-39.78-109.23 0-152.15 36.125-39.154 97.152-41.609 136.31-5.484 1.901 1.754 3.73 3.583 5.484 5.484l20.804 21.948c6.856 6.812 17.925 6.812 24.781 0l20.804-21.931c36.125-39.154 97.152-41.609 136.31-5.484 1.901 1.754 3.73 3.583 5.484 5.484 40.126 42.984 40.42 109.42 0 152.13z"/>
</svg>
